<svg width="22" height="22" viewBox="0 0 22 22" fill="none" xmlns="http://www.w3.org/2000/svg">
<g clip-path="url(#clip0_1299_2591)">
<path fill-rule="evenodd" clip-rule="evenodd" d="M15.9308 10.7466L18.6662 6.75149L18.9296 6.93168C19.0679 7.02634 19.1032 7.21578 19.0085 7.3535C18.3141 8.36769 16.8073 10.5694 16.8073 10.5694C16.7126 10.7072 16.7477 10.8966 16.8862 10.9912C17.0239 11.0853 17.2132 11.0502 17.3079 10.9117C17.3079 10.9117 18.8149 8.71049 19.5091 7.69632C19.7932 7.28183 19.6876 6.71494 19.2724 6.43098L19.0091 6.25068L19.3987 5.68262C19.5346 5.48295 19.5862 5.2378 19.5419 5.0005C19.4976 4.76319 19.361 4.55319 19.1614 4.41666L18.4859 3.95419C18.2862 3.81766 18.0411 3.76607 17.8038 3.81033C17.5664 3.85471 17.3564 3.99183 17.2199 4.1909L15.9309 6.07353V2.56491C15.9309 2.39747 15.7949 2.26154 15.6274 2.26154H2.77017C2.60273 2.26154 2.4668 2.39746 2.4668 2.56491V19.5581C2.4668 19.7256 2.60272 19.8615 2.77017 19.8615H15.6274C15.7948 19.8615 15.9309 19.7256 15.9309 19.5581L15.9308 10.7466ZM15.3239 6.96016V2.86844H3.07367V19.2549H15.3239V11.6327L13.2683 14.635C13.2574 14.6514 13.2452 14.6666 13.2319 14.6805C13.2149 14.6975 13.1968 14.712 13.1773 14.7242L11.3584 15.9343H13.0638C13.2313 15.9343 13.3673 16.0703 13.3673 16.2378C13.3673 16.4053 13.2313 16.5413 13.0638 16.5413H8.37977C8.21223 16.5413 8.0763 16.4053 8.0763 16.2378C8.0763 16.0703 8.21222 15.9343 8.37977 15.9343H10.4511C10.4523 15.9259 10.4535 15.9167 10.4559 15.9083L10.9913 13.4795H5.33377C5.16622 13.4795 5.03029 13.3435 5.03029 13.176C5.03029 13.0085 5.16621 12.8725 5.33377 12.8725H11.2758L12.5242 11.0495H5.33371C5.16617 11.0495 5.03024 10.9134 5.03024 10.746C5.03024 10.5785 5.16616 10.4425 5.33371 10.4425H12.94L15.3239 6.96016ZM11.537 13.8235C11.4119 14.3904 11.2104 15.3043 11.2104 15.3043L12.4728 14.4644L11.537 13.8235ZM16.9887 5.60302L18.1655 6.40841L12.9358 14.0463L11.7597 13.2404L16.9887 5.60302ZM5.33386 8.61875H13.064C13.2314 8.61875 13.3674 8.48282 13.3674 8.31537C13.3674 8.14783 13.2314 8.0119 13.064 8.0119H5.33386C5.16631 8.0119 5.03038 8.14782 5.03038 8.31537C5.03038 8.48282 5.1663 8.61875 5.33386 8.61875ZM5.33386 6.18872H13.064C13.2314 6.18872 13.3674 6.0528 13.3674 5.88535C13.3674 5.71781 13.2314 5.58187 13.064 5.58187H5.33386C5.16631 5.58187 5.03038 5.71779 5.03038 5.88535C5.03038 6.05279 5.1663 6.18872 5.33386 6.18872ZM18.5085 5.90773L17.3317 5.10244L17.7213 4.53376C17.7662 4.46761 17.8366 4.42143 17.9155 4.40687C17.9944 4.39232 18.0763 4.40928 18.1431 4.45486L18.8185 4.91794C18.8853 4.96282 18.9309 5.03319 18.9454 5.11209C18.9606 5.19099 18.943 5.2729 18.8974 5.33966L18.5085 5.90773Z" fill="white"/>
</g>
<defs>
<clipPath id="clip0_1299_2591">
<rect width="22" height="22" fill="white"/>
</clipPath>
</defs>
</svg>
