<svg width="22" height="22" viewBox="0 0 22 22" fill="none" xmlns="http://www.w3.org/2000/svg">
<g clip-path="url(#clip0_1299_2570)">
<path fill-rule="evenodd" clip-rule="evenodd" d="M7.37601 5.11957C6.88276 5.50612 6.56713 6.10647 6.56713 6.77917C6.56713 6.8752 6.57376 6.96983 6.58692 7.06325C6.58029 7.07108 6.57376 7.07968 6.57376 7.08816L1.51074 15.8527C1.4581 15.944 1.45157 16.0552 1.49758 16.1512L2.49047 18.3698L1.95123 19.3068C1.85921 19.4639 1.91185 19.6651 2.06967 19.7559C2.22749 19.8466 2.42467 19.7927 2.51681 19.6356L6.08075 13.4702H11.2819L14.8391 19.6356C14.9313 19.7927 15.1351 19.8466 15.2929 19.7559C15.4507 19.6652 15.5034 19.464 15.4112 19.3068L14.8721 18.3698L15.865 16.1512C15.911 16.0552 15.9044 15.944 15.8518 15.8527L10.7888 7.08816C10.7822 7.07968 10.7756 7.07108 10.7756 7.06325C10.7888 6.96982 10.7888 6.8752 10.7888 6.77917C10.7888 6.10647 10.4797 5.50609 9.98659 5.11957V3.18629C9.98659 2.92461 9.88142 2.67348 9.69727 2.48868C9.51313 2.30389 9.2633 2.20003 9.00021 2.20003H8.36243C8.09945 2.20003 7.8495 2.3039 7.66549 2.48868C7.47472 2.67347 7.37617 2.9246 7.37617 3.18629L7.37601 5.11957ZM17.4759 5.98087C17.4692 6.00132 17.4627 6.02231 17.4561 6.04472V6.10062V18.8136C17.4561 19.0753 17.5547 19.3264 17.7454 19.5112C17.9295 19.696 18.1795 19.7999 18.4425 19.7999H19.5472C19.8102 19.7999 20.06 19.696 20.2441 19.5112C20.4282 19.3264 20.5334 19.0753 20.5334 18.8136V6.10062V6.04472C20.5269 6.02231 20.5203 6.00132 20.5138 5.98087L19.3039 2.42278C19.2579 2.28932 19.1329 2.19992 18.9948 2.19992C18.8501 2.19992 18.7318 2.28932 18.6858 2.42278L17.4759 5.98087ZM19.8759 17.6149V18.8137C19.8759 18.9012 19.843 18.9847 19.7838 19.0465C19.7181 19.1082 19.6326 19.1424 19.5472 19.1424H18.4424C18.3504 19.1424 18.2715 19.1082 18.2057 19.0465C18.1465 18.9847 18.1137 18.9012 18.1137 18.8137V17.6149H19.8759ZM6.87619 7.87589L2.16148 16.0354L2.89791 17.6668L8.02024 8.78731C7.54028 8.62884 7.13265 8.302 6.87619 7.87589ZM10.4861 7.87589C10.223 8.30203 9.82195 8.62885 9.33537 8.78731L11.7551 12.9772L14.4642 17.6668L15.1941 16.0354L10.4861 7.87589ZM18.1137 16.9573V6.42247H19.876V16.9573H18.1137ZM8.67793 8.96345L6.45548 12.8128H10.9004L8.67793 8.96345ZM8.67793 5.3246C9.48015 5.3246 10.1311 5.97619 10.1311 6.77908C10.1311 7.58197 9.48015 8.23423 8.67793 8.23423C7.87571 8.23423 7.22476 7.58197 7.22476 6.77908C7.22476 5.97619 7.87571 5.3246 8.67793 5.3246ZM18.2388 5.76509H19.7445L18.9949 3.54982L18.2388 5.76509ZM9.32891 4.76827V3.18621C9.32891 3.09877 9.29606 3.01524 9.23026 2.95346C9.17109 2.89168 9.0856 2.85742 9.00012 2.85742H8.36234C8.27032 2.85742 8.19136 2.89168 8.12567 2.95346C8.0665 3.01524 8.03355 3.09877 8.03355 3.18621V4.76827C8.23737 4.70257 8.45445 4.66701 8.67798 4.66701C8.90812 4.66701 9.12509 4.70257 9.32891 4.76827Z" fill="white"/>
</g>
<defs>
<clipPath id="clip0_1299_2570">
<rect width="22" height="22" fill="white"/>
</clipPath>
</defs>
</svg>
