<svg width="22" height="22" viewBox="0 0 22 22" fill="none" xmlns="http://www.w3.org/2000/svg">
<g clip-path="url(#clip0_1299_2584)">
<path fill-rule="evenodd" clip-rule="evenodd" d="M15.5438 3.76639L6.64307 6.15049C6.26779 6.25104 5.99962 6.55258 5.91925 6.90921L1.97831 7.96617C1.44217 8.10962 1.12711 8.66115 1.26791 9.19741C1.42877 9.79451 1.66337 10.676 1.82423 11.2731C1.96491 11.8093 2.52123 12.1277 3.05745 11.9843L6.9984 10.9273C7.24628 11.1967 7.62831 11.3241 8.0037 11.2229L10.3764 10.5875L5.57749 19.3657C5.49035 19.5279 5.55066 19.7316 5.71152 19.8208C5.87903 19.9092 6.08013 19.8496 6.16729 19.6874L10.6645 11.4556V19.4643C10.6645 19.6493 10.8186 19.7995 10.9995 19.7995C11.1872 19.7995 11.3347 19.6494 11.3347 19.4643V11.4556L15.8319 19.6874C15.919 19.8496 16.1268 19.9092 16.2876 19.8208C16.4485 19.7316 16.5088 19.5279 16.4217 19.3657L11.4687 10.2955L16.9044 8.83899C17.1324 9.20161 17.5747 9.38997 18.0104 9.27335L20.0211 8.73446C20.5573 8.591 20.879 8.03948 20.7315 7.50322L19.5318 3.00715C19.3843 2.47101 18.8348 2.15264 18.2985 2.29608L16.2878 2.83497C15.8521 2.9516 15.5573 3.33827 15.5438 3.76654L15.5438 3.76639ZM3.03702 8.37627L2.15234 8.61351C1.97141 8.66107 1.87086 8.84477 1.91776 9.0237C2.07196 9.62091 2.31321 10.5023 2.47407 11.0994C2.52097 11.2784 2.70189 11.3843 2.88293 11.3367L3.76761 11.1L3.03702 8.37627ZM3.68047 8.20332L4.41104 10.9265L6.71663 10.3085L5.98606 7.58539L3.68047 8.20332ZM15.671 4.42529L6.8171 6.79797C6.64283 6.84553 6.53562 7.02922 6.58252 7.20815L7.42032 10.3388C7.46732 10.5171 7.6549 10.6236 7.82917 10.5754L16.6831 8.20272L15.671 4.42529ZM18.8814 3.18065L20.0879 7.67672C20.1349 7.85565 20.0275 8.03934 19.8466 8.08691L17.8359 8.6258C17.6616 8.67402 17.4739 8.56748 17.427 8.38922L16.2273 3.89258C16.1737 3.71432 16.281 3.53062 16.4619 3.4824L18.4726 2.9435C18.6469 2.89594 18.8346 3.00182 18.8815 3.18075L18.8814 3.18065Z" fill="white"/>
</g>
<defs>
<clipPath id="clip0_1299_2584">
<rect width="22" height="22" fill="white"/>
</clipPath>
</defs>
</svg>
