<svg width="22" height="22" viewBox="0 0 22 22" fill="none" xmlns="http://www.w3.org/2000/svg">
<g clip-path="url(#clip0_1299_2566)">
<path fill-rule="evenodd" clip-rule="evenodd" d="M8.04438 16.6894V18.9514C8.04438 19.1929 8.14155 19.4241 8.31142 19.5953C8.48137 19.7658 8.71206 19.8617 8.95478 19.8617H13.0635C13.3063 19.8617 13.5369 19.7658 13.7068 19.5953C13.8768 19.4241 13.9738 19.1929 13.9738 18.9514V16.6894C14.162 16.6591 14.3379 16.5705 14.4714 16.4345C14.6414 16.264 14.7386 16.0322 14.7386 15.7907V14.5034C16.5228 13.3023 17.7003 11.2626 17.7003 8.95075C17.7003 5.2589 14.7023 2.26169 11.0123 2.26169C7.31634 2.26169 4.31836 5.25916 4.31836 8.95075C4.31836 11.2625 5.49566 13.3023 7.28011 14.5034V15.7907C7.28011 16.0322 7.37718 16.264 7.54714 16.4345C7.68066 16.5705 7.85663 16.6591 8.04474 16.6894H8.04438ZM13.3668 18.2813H8.65112V18.9514C8.65112 19.0321 8.68144 19.1092 8.74218 19.1662C8.79678 19.2226 8.87569 19.2548 8.95459 19.2548H13.0633C13.1422 19.2548 13.2211 19.2226 13.2757 19.1662C13.3304 19.1092 13.3667 19.0321 13.3667 18.9514L13.3668 18.2813ZM13.3668 16.701H8.65112V17.6745H13.3668V16.701ZM12.7174 16.094H13.8281C13.907 16.094 13.9859 16.0619 14.0405 16.0055C14.1012 15.9485 14.1315 15.8714 14.1315 15.7907V14.3395C14.1315 14.2358 14.1861 14.1392 14.2711 14.0834C15.9644 13.0038 17.0933 11.1078 17.0933 8.95092C17.0933 5.59418 14.3682 2.8686 11.0122 2.8686C7.6501 2.8686 4.92503 5.59418 4.92503 8.95092C4.92503 11.1079 6.05386 13.0038 7.74724 14.0834C7.83217 14.1392 7.88678 14.2358 7.88678 14.3395V15.7907C7.88678 15.8714 7.91719 15.9485 7.97782 16.0055C8.03243 16.0619 8.11134 16.094 8.19024 16.094H9.3009V10.3879C9.3009 10.3679 9.30692 10.3479 9.30692 10.3278C9.31305 10.3029 9.31907 10.2793 9.33122 10.2562L10.7332 7.0172C10.7757 6.90607 10.891 6.83389 11.0124 6.83389C11.1277 6.83389 11.2369 6.90607 11.2854 7.0172L12.6874 10.2562C12.6995 10.2786 12.7056 10.3029 12.7117 10.3278C12.7117 10.3479 12.7177 10.3679 12.7177 10.3879L12.7174 16.094ZM9.90752 16.094H10.7086V10.6866H9.90752V16.094ZM11.3155 10.6866V16.094H12.1106V10.6866H11.3155ZM10.0653 10.0796H11.9528L11.0121 7.9021L10.0653 10.0796Z" fill="white"/>
</g>
<defs>
<clipPath id="clip0_1299_2566">
<rect width="22" height="22" fill="white"/>
</clipPath>
</defs>
</svg>
