<svg width="22" height="22" viewBox="0 0 22 22" fill="none" xmlns="http://www.w3.org/2000/svg">
<g clip-path="url(#clip0_1299_2577)">
<g clip-path="url(#clip1_1299_2577)">
<path fill-rule="evenodd" clip-rule="evenodd" d="M18.9151 7.45071C18.9076 7.47751 18.8999 7.50494 18.8923 7.534C18.8846 7.55764 18.8846 7.58216 18.8846 7.60579V18.3864C18.8846 18.6907 19.0069 18.9817 19.2208 19.1972C19.4347 19.4119 19.725 19.5326 20.0308 19.5326H20.9324C21.2304 19.5326 21.5207 19.4119 21.7423 19.1972C21.9563 18.9817 22.0785 18.6907 22.0785 18.3864V7.60579C22.0785 7.58216 22.0709 7.55764 22.0709 7.534C22.0632 7.50493 22.0556 7.47751 22.0479 7.45071L20.8331 4.37978C20.7796 4.23393 20.6344 4.13763 20.4816 4.13763C20.3211 4.13763 20.1836 4.23393 20.1224 4.37978L18.9151 7.45071ZM-0.0800781 17.1501V17.2388V17.2403C-0.0800781 17.8485 0.156769 18.4315 0.584588 18.861C1.02012 19.291 1.60085 19.5326 2.2122 19.5326H17.0738C17.2877 19.5326 17.4558 19.3615 17.4558 19.1505V4.51962C17.4558 4.30869 17.2878 4.13754 17.0738 4.13754H3.74809V2.8493C3.74809 2.63836 3.57228 2.46722 3.36601 2.46722H2.38032C1.02015 2.46722 -0.0800455 3.57059 -0.0800455 4.93137V17.1133V17.15L-0.0800781 17.1501ZM21.3146 17.646V18.3864C21.3146 18.488 21.2687 18.5851 21.2 18.6561C21.1312 18.728 21.0319 18.7684 20.9325 18.7684H20.0309C19.9316 18.7684 19.8322 18.728 19.7635 18.6561C19.687 18.5851 19.6488 18.488 19.6488 18.3864V17.646H21.3146ZM3.74815 15.3284L3.74044 15.3515V15.3796C3.71757 15.5662 3.55705 15.7105 3.3661 15.7105H2.21232C1.80724 15.7105 1.41762 15.8718 1.1273 16.1583C0.844573 16.4448 0.68407 16.8337 0.68407 17.2388V17.2403C0.68407 17.6453 0.84458 18.0342 1.1273 18.3207C1.41761 18.6073 1.80727 18.7685 2.21232 18.7685H16.6918V4.90183H3.74821L3.74815 15.3284ZM12.8104 8.00169V8.35089C12.8104 10.0335 11.4503 11.3981 9.76163 11.3981C7.66047 11.3981 5.94893 13.1043 5.94893 15.2095V16.6086C5.94893 16.8195 6.12473 16.9907 6.33101 16.9907C6.54498 16.9907 6.71309 16.8195 6.71309 16.6086V15.2095C6.71309 13.5263 8.08083 12.1623 9.76179 12.1623C11.8708 12.1623 13.5745 10.4561 13.5745 8.35089V7.96655L13.7809 8.17357C13.9337 8.32258 14.1705 8.32258 14.3233 8.17357C14.4686 8.0238 14.4686 7.7824 14.3233 7.63263L13.4829 6.7914C13.3301 6.64239 13.0932 6.64239 12.9404 6.7914L12.0998 7.63263C11.9547 7.78239 11.9547 8.0238 12.0998 8.17357C12.245 8.32258 12.4896 8.32258 12.6424 8.17357L12.8104 8.00169ZM21.3149 16.8818H19.6492V7.98098H21.3149V16.8818ZM10.2127 14.7935L9.62432 14.2075C9.4791 14.0585 9.23467 14.0585 9.08946 14.2075C8.93665 14.3565 8.93665 14.5988 9.08946 14.7478L9.6702 15.3338L9.08946 15.9199C8.93665 16.0696 8.93665 16.311 9.08946 16.4608C9.23468 16.6098 9.47911 16.6098 9.62432 16.4608L10.2127 15.874L10.8011 16.4608C10.9462 16.6098 11.1908 16.6098 11.336 16.4608C11.4888 16.311 11.4888 16.0696 11.336 15.9199L10.7552 15.3338L11.336 14.7478C11.4888 14.5988 11.4888 14.3565 11.336 14.2075C11.1908 14.0585 10.9462 14.0585 10.8011 14.2075L10.2127 14.7935ZM2.98425 14.9465V3.2314H2.38064C1.44083 3.2314 0.684273 3.99239 0.684273 4.93142V15.5302C1.09693 15.1551 1.64709 14.9466 2.21252 14.9466L2.98425 14.9465ZM8.90584 7.79829L8.3175 7.21225C8.17229 7.06324 7.92785 7.06324 7.78264 7.21225C7.62984 7.36126 7.62984 7.60342 7.78264 7.75241L8.36338 8.33846L7.78264 8.92527C7.62984 9.07429 7.62984 9.3158 7.78264 9.46557C7.92786 9.61458 8.17229 9.61458 8.3175 9.46557L8.90584 8.87875L9.49419 9.46557C9.6394 9.61458 9.88396 9.61458 10.0368 9.46557C10.182 9.3158 10.182 9.07427 10.0368 8.92527L9.44843 8.33846L10.0368 7.75241C10.182 7.6034 10.182 7.36124 10.0368 7.21225C9.88398 7.06324 9.63943 7.06324 9.49419 7.21225L8.90584 7.79829ZM19.8324 7.21678H21.1314L20.4819 5.5625L19.8324 7.21678Z" fill="white"/>
</g>
</g>
<defs>
<clipPath id="clip0_1299_2577">
<rect width="22" height="22" fill="white"/>
</clipPath>
<clipPath id="clip1_1299_2577">
<rect width="22" height="22" fill="white"/>
</clipPath>
</defs>
</svg>
