<svg width="24" height="25" viewBox="0 0 24 25" fill="none" xmlns="http://www.w3.org/2000/svg">
<path d="M12 22.5576C10.6167 22.5576 9.31667 22.295 8.1 21.7696C6.88334 21.2443 5.825 20.532 4.925 19.6326C4.025 18.7333 3.31267 17.675 2.788 16.4576C2.26333 15.2403 2.00067 13.9403 2 12.5576C1.99933 11.175 2.262 9.87495 2.788 8.65762C3.314 7.44028 4.02633 6.38195 4.925 5.48262C5.82367 4.58328 6.882 3.87095 8.1 3.34562C9.318 2.82028 10.618 2.55762 12 2.55762C13.382 2.55762 14.682 2.82028 15.9 3.34562C17.118 3.87095 18.1763 4.58328 19.075 5.48262C19.9737 6.38195 20.6863 7.44028 21.213 8.65762C21.7397 9.87495 22.002 11.175 22 12.5576C21.998 13.9403 21.7353 15.2403 21.212 16.4576C20.6887 17.675 19.9763 18.7333 19.075 19.6326C18.1737 20.532 17.1153 21.2446 15.9 21.7706C14.6847 22.2966 13.3847 22.559 12 22.5576Z" fill="#F8771F"/>
</svg>
