<svg width="32" height="33" viewBox="0 0 32 33" fill="none" xmlns="http://www.w3.org/2000/svg">
<g clip-path="url(#clip0_673_2162)">
<path d="M20.444 23.6688C20.444 23.9045 20.3504 24.1306 20.1837 24.2973C20.017 24.464 19.7909 24.5577 19.5551 24.5577H7.11068C6.91512 24.5577 6.72845 24.7354 6.56845 24.851L3.55512 27.2243V13.0021C3.55512 12.7664 3.64877 12.5403 3.81547 12.3736C3.98217 12.2069 4.20826 12.1132 4.44401 12.1132H7.87512V10.3354H4.44401C3.73677 10.3354 3.05849 10.6164 2.55839 11.1165C2.0583 11.6166 1.77734 12.2949 1.77734 13.0021V29.0021C1.77867 29.1672 1.82594 29.3287 1.91386 29.4684C2.00178 29.6081 2.12687 29.7206 2.27512 29.7932C2.41795 29.8582 2.57542 29.8842 2.73154 29.8686C2.88767 29.8529 3.03687 29.7963 3.16401 29.7043L7.74179 26.3354H19.6885C20.0254 26.3454 20.3607 26.2861 20.6737 26.1612C20.9868 26.0363 21.2709 25.8484 21.5083 25.6093C21.7458 25.3701 21.9317 25.0847 22.0544 24.7708C22.1771 24.4569 22.2341 24.1212 22.2218 23.7843V22.7799H20.444V23.6688Z" fill="#F8771F"/>
<path d="M27.5551 4.11279H12.444C11.7368 4.11279 11.0585 4.39374 10.5584 4.89384C10.0583 5.39394 9.77734 6.07222 9.77734 6.77946V17.4461C9.77734 18.1534 10.0583 18.8316 10.5584 19.3317C11.0585 19.8318 11.7368 20.1128 12.444 20.1128H24.4885L28.7373 23.4106C28.8637 23.504 29.0125 23.5622 29.1686 23.5794C29.3247 23.5966 29.4826 23.572 29.6262 23.5083C29.7775 23.4363 29.9053 23.323 29.995 23.1814C30.0846 23.0399 30.1324 22.8759 30.1329 22.7083V6.77946C30.1333 6.08735 29.8646 5.4222 29.3835 4.92459C28.9025 4.42697 28.2468 4.13586 27.5551 4.11279ZM28.444 20.9484L25.3329 18.5217C25.1777 18.4013 24.9871 18.3356 24.7907 18.335H12.444C12.2083 18.335 11.9822 18.2414 11.8155 18.0747C11.6488 17.908 11.5551 17.6819 11.5551 17.4461V6.77946C11.5551 6.54371 11.6488 6.31762 11.8155 6.15092C11.9822 5.98422 12.2083 5.89057 12.444 5.89057H27.5551C27.7927 5.91214 28.0143 6.01983 28.178 6.19338C28.3417 6.36692 28.4363 6.59433 28.444 6.83279V20.9484Z" fill="#F8771F"/>
</g>
<defs>
<clipPath id="clip0_673_2162">
<rect width="32" height="32" fill="white" transform="translate(0 0.557617)"/>
</clipPath>
</defs>
</svg>
