<svg width="120" height="121" viewBox="0 0 120 121" fill="none" xmlns="http://www.w3.org/2000/svg">
<path d="M71.25 60.5574C71.25 84.3364 91.438 103.682 116.25 103.682V99.9324C96.192 99.9324 79.44 86.1934 75.76 68.0574H99.375C100.37 68.0574 101.323 67.6625 102.027 66.959C102.73 66.2559 103.125 65.302 103.125 64.3074V60.5574C103.125 59.5629 102.73 58.609 102.027 57.9058C101.323 57.2023 100.37 56.8074 99.375 56.8074H88.125C86.7852 56.8074 85.5473 56.0926 84.8773 54.9324C84.2074 53.7722 84.2074 52.3426 84.8773 51.1824C85.5472 50.0222 86.7851 49.3074 88.125 49.3074C89.1195 49.3074 90.0734 48.9125 90.7766 48.209C91.4801 47.5059 91.875 46.552 91.875 45.5574V43.6824C91.875 42.6879 91.4801 41.734 90.7766 41.0308C90.0735 40.3273 89.1196 39.9324 88.125 39.9324H81.1301C84.9578 34.1277 90.1754 29.3714 96.3091 26.0974C102.443 22.8228 109.297 21.1333 116.25 21.1826V17.4326C91.4381 17.4326 71.2501 36.7786 71.2501 60.5576L71.25 60.5574Z" fill="#399FD6"/>
<path d="M105 79.2817C105 80.2696 104.608 81.2165 103.909 81.9149C103.211 82.6134 102.264 83.0059 101.276 83.0059H101.224C100.236 83.0059 99.289 83.3981 98.5906 84.0965C97.8922 84.795 97.5 85.7422 97.5 86.7297V86.7817C97.5 87.7696 97.8922 88.7165 98.5906 89.4149C99.289 90.1133 100.236 90.5059 101.224 90.5059H116.25V75.6619L108.776 75.558C107.779 75.5439 106.819 75.9303 106.109 76.6303C105.399 77.3299 105 78.285 105 79.2815L105 79.2817Z" fill="#399FD6"/>
<path d="M105 32.4065C105 33.4127 105.396 34.3788 106.103 35.0952C106.809 35.8116 107.77 36.2214 108.776 36.235L116.25 36.1826V28.6826L108.723 28.5791C107.726 28.6068 106.779 29.0221 106.084 29.7369C105.389 30.4517 105 31.4096 105 32.4064L105 32.4065Z" fill="#399FD6"/>
<path d="M93.75 30.5576H97.5V34.3076H93.75V30.5576Z" fill="#399FD6"/>
<path d="M110.621 49.3076H114.371V53.0576H110.621V49.3076Z" fill="#399FD6"/>
<path d="M103.121 45.5576H106.871V49.3076H103.121V45.5576Z" fill="#399FD6"/>
<path d="M84.375 73.6826H88.125V77.4326H84.375V73.6826Z" fill="#399FD6"/>
<path d="M56.25 54.9326H65.625V66.1826H56.25V54.9326Z" fill="#399FD6"/>
<path d="M37.5 56.8076H41.0254V64.3076H37.5V56.8076Z" fill="#399FD6"/>
<path d="M42.4375 56.8076H54.3745V64.3076H42.4375V56.8076Z" fill="#399FD6"/>
<path d="M26.25 58.6826H35.625V62.4326H26.25V58.6826Z" fill="#399FD6"/>
<path d="M37.1598 95.3814L46.8743 81.5044V94.3064H50.6243V81.5044L60.3388 95.3814L63.4099 93.233L50.6239 74.967V66.1826H46.8739V74.967L34.0879 93.233L37.1598 95.3814Z" fill="#399FD6"/>
<path d="M7.5 4.30762H11.25V8.05762H7.5V4.30762Z" fill="#399FD6"/>
<path d="M7.5 11.8076H11.25V15.5576H7.5V11.8076Z" fill="#399FD6"/>
<path d="M11.25 8.05762H15V11.8076H11.25V8.05762Z" fill="#399FD6"/>
<path d="M3.75 8.05762H7.5V11.8076H3.75V8.05762Z" fill="#399FD6"/>
<path d="M78.75 8.05762H82.5V11.8076H78.75V8.05762Z" fill="#399FD6"/>
<path d="M78.75 15.5576H82.5V19.3076H78.75V15.5576Z" fill="#399FD6"/>
<path d="M82.5 11.8076H86.25V15.5576H82.5V11.8076Z" fill="#399FD6"/>
<path d="M75 11.8076H78.75V15.5576H75V11.8076Z" fill="#399FD6"/>
<path d="M41.25 26.8076H45V30.5576H41.25V26.8076Z" fill="#399FD6"/>
<path d="M41.25 34.3076H45V38.0576H41.25V34.3076Z" fill="#399FD6"/>
<path d="M45 30.5576H48.75V34.3076H45V30.5576Z" fill="#399FD6"/>
<path d="M37.5 30.5576H41.25V34.3076H37.5V30.5576Z" fill="#399FD6"/>
<path d="M65.625 116.808V96.1826H31.875V105.558H3.75V116.808H65.625Z" fill="#399FD6"/>
<path d="M16.8749 58.6827C15.3226 58.6764 13.837 59.3147 12.7729 60.4452C11.7088 61.5757 11.1616 63.0972 11.2616 64.6464C11.3616 66.1956 12.1003 67.6339 13.3007 68.6179C12.1343 69.1292 11.1417 69.9691 10.4445 71.0347C9.74762 72.1007 9.3757 73.3464 9.375 74.6202V103.682H15.9375V88.6822H17.8125V103.682H24.375V74.6202C24.3738 74.3065 24.3504 73.9932 24.3047 73.6827H30C30.4973 73.6827 30.9742 73.4854 31.3258 73.1335C31.6777 72.7819 31.875 72.3049 31.875 71.8077V64.3077H28.125V69.9327H22.3727C21.8149 69.3834 21.1633 68.9381 20.4493 68.6179C21.6497 67.6339 22.3884 66.1956 22.4884 64.6464C22.5884 63.0972 22.0411 61.5757 20.9771 60.4452C19.9131 59.3147 18.4275 58.6764 16.8751 58.6827L16.8749 58.6827Z" fill="#399FD6"/>
</svg>
