<svg width="32" height="33" viewBox="0 0 32 33" fill="none" xmlns="http://www.w3.org/2000/svg">
<path d="M16.0003 3.22412C8.63633 3.22412 2.66699 9.19345 2.66699 16.5575C2.66699 23.9215 8.63633 29.8908 16.0003 29.8908C23.3643 29.8908 29.3337 23.9215 29.3337 16.5575C29.3337 9.19345 23.3643 3.22412 16.0003 3.22412Z" stroke="#F8771F" stroke-width="2" stroke-linecap="round" stroke-linejoin="round"/>
<path d="M10.667 28.7818V19.2244L16.0003 9.89111L21.3337 19.2244V28.7818" stroke="#F8771F" stroke-width="2" stroke-linecap="round" stroke-linejoin="round"/>
<path d="M10.667 19.2241C10.667 19.2241 12.1697 20.5575 13.3337 20.5575C14.4977 20.5575 16.0003 19.2241 16.0003 19.2241C16.0003 19.2241 17.503 20.5575 18.667 20.5575C19.831 20.5575 21.3337 19.2241 21.3337 19.2241" stroke="#F8771F" stroke-width="2" stroke-linecap="round" stroke-linejoin="round"/>
</svg>
