<svg width="32" height="33" viewBox="0 0 32 33" fill="none" xmlns="http://www.w3.org/2000/svg">
<path d="M26.667 14.0615C26.667 8.95212 26.667 6.39879 25.1043 4.81079C23.5417 3.22279 21.0283 3.22412 16.0003 3.22412H13.3337C8.30566 3.22412 5.79099 3.22412 4.22966 4.81079C2.66833 6.39745 2.66699 8.95212 2.66699 14.0615C2.66699 19.1708 2.66699 21.7241 4.22966 23.3121C4.85633 23.9481 5.63499 24.3295 6.66699 24.5575" stroke="#F8771F" stroke-width="2" stroke-linecap="round" stroke-linejoin="round"/>
<path d="M29.3337 23.8911C29.3337 21.3911 29.3337 20.1418 28.6977 19.2644C28.4921 18.9815 28.2433 18.7327 27.9603 18.5271C27.083 17.8911 25.8337 17.8911 23.3337 17.8911H16.667C14.167 17.8911 12.9177 17.8911 12.0403 18.5271C11.7574 18.7327 11.5086 18.9815 11.303 19.2644C10.667 20.1431 10.667 21.3924 10.667 23.8911C10.667 26.3898 10.667 27.6404 11.303 28.5178C11.509 28.8008 11.7582 29.0496 12.0417 29.2551C12.9177 29.8911 14.167 29.8911 16.667 29.8911H23.3337C25.8337 29.8911 27.083 29.8911 27.9603 29.2551C28.2433 29.0495 28.4921 28.8007 28.6977 28.5178C29.3337 27.6404 29.3337 26.3911 29.3337 23.8911Z" stroke="#F8771F" stroke-width="2" stroke-linecap="round" stroke-linejoin="round"/>
<path d="M21.9997 21.891L23.2263 22.9483C23.7423 23.3923 23.9997 23.615 23.9997 23.891C23.9997 24.167 23.7423 24.3896 23.2263 24.8336L21.9997 25.891M17.9997 21.891L16.773 22.9483C16.257 23.3923 15.9997 23.615 15.9997 23.891C15.9997 24.167 16.257 24.3896 16.773 24.8336L17.9997 25.891M3.33301 8.55762H25.9997" stroke="#F8771F" stroke-width="2" stroke-linecap="round" stroke-linejoin="round"/>
</svg>
