<svg width="120" height="121" viewBox="0 0 120 121" fill="none" xmlns="http://www.w3.org/2000/svg">
<path d="M75.0007 60.5576C75.0007 64.2138 76.7445 67.4388 79.4445 69.5014C74.0633 71.8826 70.1633 76.9826 69.4883 83.0574H103.014C102.339 76.9824 98.4393 71.8824 93.0581 69.5014C95.7581 67.4389 97.5019 64.2139 97.5019 60.5576C97.5019 54.3514 92.4581 49.3076 86.2519 49.3076C80.0457 49.3076 75.0019 54.3514 75.0019 60.5576H75.0007Z" fill="#399FD6"/>
<path d="M40.5569 69.5017C43.2569 67.4392 45.0007 64.2142 45.0007 60.5579C45.0007 54.3517 39.9569 49.3079 33.7507 49.3079C27.5445 49.3079 22.5007 54.3517 22.5007 60.5579C22.5007 64.2141 24.2445 67.4391 26.9445 69.5017C21.5633 71.8829 17.6633 76.9829 16.9883 83.0577H50.5143C49.8393 76.9827 45.9393 71.8827 40.5581 69.5017H40.5569Z" fill="#399FD6"/>
<path d="M11.25 86.8076H108.75C110.822 86.8076 112.5 88.8795 112.5 90.5576V92.4326C112.5 94.5045 110.822 96.1826 108.75 96.1826H11.25C9.1781 96.1826 7.5 94.1107 7.5 92.4326V90.5576C7.5 88.4857 9.1781 86.8076 11.25 86.8076Z" fill="#399FD6"/>
<path d="M11.25 111.188C11.25 112.219 12.0938 113.063 13.125 113.063H106.875C107.906 113.063 108.75 112.219 108.75 111.188V99.9375H11.25V111.188Z" fill="#399FD6"/>
<path d="M71.9624 52.9076C72.6749 52.6264 73.1249 51.9326 73.1249 51.1826V45.5576H62.9629L69.9191 52.5138C70.2753 52.8701 70.7628 53.0576 71.2503 53.0576C71.494 53.0576 71.7378 53.0201 71.9628 52.9076L71.9624 52.9076Z" fill="#399FD6"/>
<path d="M44.9994 41.8078H46.8744V51.1828C46.8744 51.9422 47.3291 52.6266 48.0322 52.9172C48.2666 53.0156 48.5103 53.0578 48.7494 53.0578C49.2369 53.0578 49.715 52.8656 50.076 52.5094L60.778 41.8074H75C78.1031 41.8074 80.625 39.2855 80.625 36.1824V13.6824C80.625 10.5793 78.1031 8.05737 75 8.05737H45C41.8969 8.05737 39.375 10.5793 39.375 13.6824V36.1824C39.375 39.2855 41.8969 41.8074 45 41.8074L44.9994 41.8078ZM67.4994 23.0578C68.5353 23.0578 69.3744 23.8969 69.3744 24.9328C69.3744 25.9687 68.5354 26.8078 67.4994 26.8078C66.4635 26.8078 65.6244 25.9687 65.6244 24.9328C65.6244 23.8969 66.4635 23.0578 67.4994 23.0578ZM59.9994 23.0578C61.0353 23.0578 61.8744 23.8969 61.8744 24.9328C61.8744 25.9687 61.0354 26.8078 59.9994 26.8078C58.9635 26.8078 58.1244 25.9687 58.1244 24.9328C58.1244 23.8969 58.9635 23.0578 59.9994 23.0578ZM52.4994 23.0578C53.5353 23.0578 54.3744 23.8969 54.3744 24.9328C54.3744 25.9687 53.5354 26.8078 52.4994 26.8078C51.4635 26.8078 50.6244 25.9687 50.6244 24.9328C50.6244 23.8969 51.4635 23.0578 52.4994 23.0578Z" fill="#399FD6"/>
</svg>
