<svg width="30" height="31" viewBox="0 0 30 31" fill="none" xmlns="http://www.w3.org/2000/svg">
<path d="M9.06225 9.2503C9.06225 7.6753 9.68802 6.1648 10.8013 5.05155C11.9158 3.93828 13.4251 3.3125 15.0001 3.3125C16.5751 3.3125 18.0843 3.93828 19.1988 5.05155C20.3121 6.16483 20.9379 7.6753 20.9379 9.2503C20.9379 10.8241 20.3121 12.3346 19.1988 13.4478C18.0844 14.5623 16.5751 15.1869 15.0001 15.1869C13.4251 15.1869 11.9158 14.5623 10.8013 13.4478C9.68802 12.3345 9.06225 10.8241 9.06225 9.2503ZM15.8628 15.8128H14.1378C11.7811 15.8151 9.52275 16.7527 7.85625 18.4191C6.19102 20.0855 5.2535 22.3436 5.25 24.7006C5.25117 25.6369 5.89103 26.4513 6.8004 26.6752C9.48165 27.349 12.2354 27.6888 14.9999 27.6877C17.7644 27.6888 20.5184 27.349 23.1994 26.6752C24.1088 26.4513 24.7486 25.6369 24.7498 24.7006C24.7463 22.3439 23.8088 20.0856 22.1436 18.4191C20.4772 16.7527 18.2191 15.8151 15.8621 15.8128H15.8628Z" fill="white"/>
</svg>
