<svg width="32" height="33" viewBox="0 0 32 33" fill="none" xmlns="http://www.w3.org/2000/svg">
<path d="M28 29.8908L25.1374 27.0281M25.1374 27.0281C25.9943 26.1707 26.4758 25.0083 26.476 23.7961C26.4761 22.7383 26.1094 21.7132 25.4384 20.8954C24.7674 20.0777 23.8336 19.5179 22.7962 19.3115C21.7587 19.1051 20.6818 19.2648 19.7488 19.7635C18.8159 20.2621 18.0848 21.0688 17.68 22.0461C17.2752 23.0234 17.2219 24.1108 17.529 25.123C17.8361 26.1353 18.4847 27.0097 19.3643 27.5973C20.2438 28.1849 21.3 28.4494 22.3527 28.3456C23.4053 28.2418 24.3895 27.7762 25.1374 27.0281Z" stroke="#F8771F" stroke-width="2" stroke-linecap="round" stroke-linejoin="round"/>
<path d="M14.6667 29.8908H14.3027C9.956 29.8908 7.78 29.8908 6.27067 28.8268C5.84113 28.5256 5.45719 28.1641 5.13067 27.7535C4 26.3321 4 24.2868 4 20.1935V16.8001C4 12.8495 4 10.8735 4.62533 9.29612C5.63067 6.75879 7.756 4.75879 10.452 3.81212C12.1267 3.22412 14.224 3.22412 18.424 3.22412C20.8213 3.22412 22.0213 3.22412 22.9787 3.56012C24.5187 4.10145 25.7333 5.24412 26.308 6.69345C26.6667 7.59479 26.6667 8.72412 26.6667 10.9815V16.5575" stroke="#F8771F" stroke-width="2" stroke-linecap="round" stroke-linejoin="round"/>
<path d="M4 16.5575C4 15.3788 4.46821 14.2485 5.30162 13.4151C6.13503 12.5817 7.26538 12.1135 8.444 12.1135C9.332 12.1135 10.3787 12.2681 11.2413 12.0375C11.6183 11.936 11.9619 11.7373 12.2378 11.4611C12.5137 11.185 12.7122 10.8412 12.8133 10.4641C13.044 9.60145 12.8893 8.55479 12.8893 7.66679C12.8897 6.4884 13.358 5.35839 14.1914 4.52527C15.0248 3.69214 16.1549 3.22412 17.3333 3.22412" stroke="#F8771F" stroke-width="2" stroke-linecap="round" stroke-linejoin="round"/>
</svg>
